<svg xmlns="http://www.w3.org/2000/svg" xmlns:xlink="http://www.w3.org/1999/xlink" width="502.553" height="175" viewBox="0 0 502.553 175"><defs><style>.a{fill:#fff;}.b{clip-path:url(#a);}</style><clipPath id="a"><rect class="a" width="495.42" height="149.276"/></clipPath></defs><g transform="translate(0 25.928) rotate(-3)"><g class="b"><path class="a" d="M15.8,69.236c-.148.879-.361,2.259-.616,3.992-1.935,13.159-1.22,14.529-.466,14.9a1.4,1.4,0,0,0,.944.072c1.979-.6,1.113-6.043,2.524-15.279.066-.435.263-1.576.636-3.863.424-2.6.85-5.2,1.322-7.807a10.508,10.508,0,0,0,5.1.967c1.03-.07,2.26-.366,2.475-1.644A1.109,1.109,0,0,0,26.5,59.179c-.272.018-.552.09-.823.108a8.7,8.7,0,0,1-4.915-1.4c.207-1.227.412-2.453.673-3.682,2.025-.244,3.338-.388,5.345-.525,1.086-.075,2.885.066,3.163-1.586.286-1.705-1.313-1.438-2.509-1.355-2.061.141-3.373.284-5.4.529.277-1.335.564-2.724.9-4.064l.036-.214a1.078,1.078,0,0,0-1.222-1.339,1.954,1.954,0,0,0-1.673,1.328,36.6,36.6,0,0,0-1.1,4.657c-4.442.715-8.144,1.387-10.888,1.907C3.454,54.421.021,55.16,0,56.187c-.009.478.722.913.8.958.546.317,1.06.253,2.554,0,.91-.154,4.379-.75,4.68-.754a1.375,1.375,0,0,0,.275-.032,1.347,1.347,0,0,0,.168-.049,65.158,65.158,0,0,1,9.947-1.738c-.206.91-.368,1.869-.518,2.774A105.869,105.869,0,0,1,7.789,66.783a1.757,1.757,0,0,0-.731,1.156,1.121,1.121,0,0,0,1.27,1.388,1.713,1.713,0,0,0,.976-.383,27.642,27.642,0,0,0,2.513-2.174c1.814-1.547,3.541-3.192,5.264-4.838-.4,2.4-.868,4.853-1.28,7.3" transform="translate(0 5.194)"/><path class="a" d="M48.5,65.927c-1.822.319-3.648.691-5.473,1.065.043-1.555.14-3.119.236-4.682,1.719-.354,3.437-.709,5.15-1.009,1.018-.178,2.3-.349,2.395-1.859.086-1.4-.978-1.323-2.049-1.135-1.823.319-3.593.683-5.366,1.047l.273-4.423c1.5-.316,3.007-.633,4.508-.9l1.019-.178a2.062,2.062,0,0,0,1.64-1.674c.1-1.565-1.19-1.34-2.368-1.133-1.554.272-3.058.588-4.616.916l.263-4.261c1.825-.373,3.654-.8,5.477-1.118.965-.169,2.045-.519,2.125-1.813a1.13,1.13,0,0,0-1.354-1.255c-2.089.365-4.235.794-6.332,1.269.815-2.916,1.946-5.783,3.027-8.692a2.19,2.19,0,0,0,.139-.558,1.13,1.13,0,0,0-1.353-1.257,2.138,2.138,0,0,0-1.51,1.279c-.434,1.037-.766,2.107-1.146,3.135a67.672,67.672,0,0,0-2.225,6.843c-2.1.476-4.249,1.012-6.353,1.593,1.255-2.3,2.561-4.555,3.968-6.775a2.016,2.016,0,0,0,.322-.91,1.131,1.131,0,0,0-1.354-1.257,2.213,2.213,0,0,0-1.271.863c-1.158,1.59-8.836,15.2-8.9,16.173a1.12,1.12,0,0,0,1.408,1.246,1.809,1.809,0,0,0,1.339-1.087l1.319-2.47-.281,4.53c-.226,3.667-.449,7.28-.62,10.936-.117,1.887-.29,3.838-.245,5.7a1.144,1.144,0,0,0,1.357,1.2,1.974,1.974,0,0,0,1.6-1.826,9.316,9.316,0,0,0,.023-1.232c5.071-1.42,10.225-2.483,15.262-3.365,1.178-.206,3.668-.161,3.781-2,.126-2.049-2.474-1.167-3.813-.932m-8.429,1.742c-2.2.492-4.461.993-6.673,1.594.1-1.617.2-3.236.246-4.844,2.208-.546,4.465-1.048,6.665-1.486-.1,1.564-.2,3.181-.238,4.736m.37-7.748c-2.2.493-4.406.987-6.613,1.533l.258-4.206c2.211-.6,4.415-1.093,6.62-1.639Zm.45-7.279c-2.2.492-4.407.985-6.621,1.639.087-1.4.226-2.815.312-4.217,2.212-.6,4.369-1.191,6.572-1.684Z" transform="translate(3.115 3.898)"/><path class="a" d="M9.441,38.326l.257-.018c1.72-.369,3.473-.551,5.235-.8-.75,1.43-6.215,11.2-6.353,12.02a1.36,1.36,0,0,0,1.381,1.657,2.3,2.3,0,0,0,2-1.263c2.369-4.231,4.565-8.577,6.87-12.805,1.753-.184,3.5-.3,5.236-.423a26.339,26.339,0,0,0-2.943,7.278c-.521,3.1,1.344,4.916,4.44,4.7,2.453-.168,4.728-1.952,6.607-3.647a2.471,2.471,0,0,0,1.019-1.51,1.394,1.394,0,0,0-1.573-1.644c-1.42.1-3.458,3.118-5.459,3.255-1.1.075-1.677-.262-1.486-1.4.35-2.091,2.355-6.046,3.693-7.952a1.726,1.726,0,0,0,.4-.842,1.372,1.372,0,0,0-1.067-1.617,25.64,25.64,0,0,0-4.981.029l-1.934.133a27.764,27.764,0,0,0,1.885-3.637A1.393,1.393,0,0,0,21.092,28.2,2.306,2.306,0,0,0,19.3,29.385c-.879,1.438-1.586,2.989-2.411,4.486a47.175,47.175,0,0,0-7.182.993A2.4,2.4,0,0,0,7.922,36.74a1.345,1.345,0,0,0,1.519,1.586" transform="translate(0.899 3.208)"/><path class="a" d="M97.049,49.692a1.3,1.3,0,0,0-1.066-.434,2.013,2.013,0,0,0-1.44.831,17.785,17.785,0,0,1-4.97,4.565,2.019,2.019,0,0,0-1.03,1.353,1.333,1.333,0,0,0,.3,1.133,1.238,1.238,0,0,0,.938.4c.035,0,.069,0,.1,0,1.622-.111,7.22-5.16,7.487-6.754a1.3,1.3,0,0,0-.327-1.09" transform="translate(10.073 5.605)"/><path class="a" d="M71.452,36.814a1.2,1.2,0,0,0,1.241,1.074c.039,0,.08,0,.12,0a2.075,2.075,0,0,0,1.79-1.615c.227-1.353-1.563-5.1-2.2-5.95a1.26,1.26,0,0,0-1.154-.507,2.072,2.072,0,0,0-1.791,1.614,1.361,1.361,0,0,0,.236,1.015,10.894,10.894,0,0,1,1.759,4.374" transform="translate(7.901 3.392)"/><path class="a" d="M60.049,43.136c.037,0,.074,0,.111,0l.2-.016c.7-.095,1.4-.224,2.073-.349s1.359-.253,2.044-.345c3.52-.52,7.3-.911,11.9-1.226.962-.066,1.909-.108,2.855-.15s1.9-.085,2.869-.153a2.024,2.024,0,0,0,1.829-1.572,1.277,1.277,0,0,0-.216-1.053,1.467,1.467,0,0,0-1.1-.478c-1.108-.04-2.92.1-4.377.206l-.9.065c-3.651.252-7.447.632-11.6,1.162l-.685.086A36.579,36.579,0,0,0,60.3,40.1,1.93,1.93,0,0,0,58.8,41.649a1.223,1.223,0,0,0,1.245,1.487" transform="translate(6.689 4.299)"/><path class="a" d="M95.365,64.46c-.33.023-.675.069-1.026.116s-.707.094-1.059.119l-.077,0c-1.526,0-4.213-2.934-6.283-5.766a31.684,31.684,0,0,0,3.425-9.575,1.518,1.518,0,0,0-.282-1.3,1.265,1.265,0,0,0-1.088-.37,2.042,2.042,0,0,0-1.766,1.752c-.727,4.333-3.125,10.35-7.674,14.243a22.168,22.168,0,0,1-3.007,2.1,1.942,1.942,0,0,0-1.03,1.352,1.24,1.24,0,0,0,.292,1.065,1.327,1.327,0,0,0,1,.419c.036,0,.073,0,.11,0a1.831,1.831,0,0,0,.743-.212,22.852,22.852,0,0,0,7.271-6.452c1.554,2.032,4.794,6.066,7.885,5.845.128-.009.272-.014.428-.021,1.217-.052,3.257-.14,3.541-1.834a1.26,1.26,0,0,0-.285-1.077,1.343,1.343,0,0,0-1.116-.4" transform="translate(8.589 5.426)"/><path class="a" d="M74.335,56.684a1.278,1.278,0,0,0-.889-.482,17.886,17.886,0,0,0-3.546.01,28.551,28.551,0,0,0-4.389.608,1.445,1.445,0,0,0-.325-.981,1.067,1.067,0,0,0-.931-.334A2.015,2.015,0,0,0,62.4,56.959a40.7,40.7,0,0,0-.813,4.01c-.042.251-1.028,6.16-.587,7.575a1.275,1.275,0,0,0,1.225.891c.033,0,.067,0,.1,0a2.111,2.111,0,0,0,1.655-1.265c2-.251,4.178-.459,6.659-.628l.28-.016c.906-.045,2.424-.119,2.671-1.588a1.328,1.328,0,0,0-.214-1.088,1.172,1.172,0,0,0-.646-.4,48.061,48.061,0,0,0,1.81-6.659,1.43,1.43,0,0,0-.206-1.106M71.06,59.219a55.679,55.679,0,0,1-1.539,5.371c-1.8.129-3.554.327-5.4.54.174-1.7.448-3.347.741-5.1a20.6,20.6,0,0,1,4.7-.775c.489-.033,1.006-.033,1.495-.039" transform="translate(6.928 6.315)"/><path class="a" d="M75.87,51.151a1.367,1.367,0,0,0-.208-1.044,1.255,1.255,0,0,0-.841-.5,13.583,13.583,0,0,0-2.954.011l-.492.035a40.524,40.524,0,0,0-7.014.9A2.08,2.08,0,0,0,62.873,52.1a1.22,1.22,0,0,0,1.24,1.487c.038,0,.075,0,.112,0l2.033-.322c1.4-.219,2.939-.384,4.714-.506a20.853,20.853,0,0,1,2.848-.062l.087.011h.02a.771.771,0,0,0,.208.017,1.954,1.954,0,0,0,1.735-1.565" transform="translate(7.152 5.636)"/><path class="a" d="M85.043,42.061c.053,0,.106,0,.155-.007h0a1.959,1.959,0,0,0,1.741-1.612,1.287,1.287,0,0,0-.283-1.066c-.686-.892-.83-3.789-.712-5.473a1.343,1.343,0,0,0-.369-1.054,1.375,1.375,0,0,0-1.092-.341,1.994,1.994,0,0,0-1.7,1.654c-.286,1.707.081,6.149,1.314,7.5a1.207,1.207,0,0,0,.948.4" transform="translate(9.409 3.699)"/><path class="a" d="M76.726,46.049a1.313,1.313,0,0,0-.207-.99,1.276,1.276,0,0,0-.843-.506,13.581,13.581,0,0,0-3.262-.013l-.438.032a37.589,37.589,0,0,0-6.758.881A2.015,2.015,0,0,0,63.729,47a1.326,1.326,0,0,0,.29,1.137,1.245,1.245,0,0,0,.946.4c.037,0,.074,0,.11,0l2.032-.322c1.413-.222,2.954-.386,4.737-.507a19.567,19.567,0,0,1,2.887-.053.544.544,0,0,0,.206.022,2.071,2.071,0,0,0,1.79-1.615" transform="translate(7.249 5.058)"/><path class="a" d="M83.968,46.049a28.921,28.921,0,0,1-3.184,2.209,1.926,1.926,0,0,0-.968,1.341,1.265,1.265,0,0,0,.273,1.086,1.3,1.3,0,0,0,1,.4c.043,0,.087,0,.131-.006a2.069,2.069,0,0,0,.789-.214,23.286,23.286,0,0,0,6.4-5.277c2,1.621,6.031,4.092,9.6,3.837a2.014,2.014,0,0,0,1.781-1.569,1.308,1.308,0,0,0-.309-1.108,1.291,1.291,0,0,0-1.085-.417c-2.5.174-6.107-1.929-7.919-3.493a25.944,25.944,0,0,0,3.678-9.886l.03-.169c.125-.723.266-1.541-.175-2.029a1.244,1.244,0,0,0-1.077-.342,1.93,1.93,0,0,0-1.743,1.611l-.156.929a20.437,20.437,0,0,1-7.058,13.1" transform="translate(9.08 3.46)"/><path class="a" d="M78.789,50.029A2.131,2.131,0,0,0,77,51.644c-.332,1.975,2.239,6.11,3.545,7.145a1.316,1.316,0,0,0,.861.286c.043,0,.088,0,.134-.006a2.071,2.071,0,0,0,1.79-1.614,1.261,1.261,0,0,0-.441-1.186,9.686,9.686,0,0,1-2.707-5.082,1.323,1.323,0,0,0-1.393-1.158" transform="translate(8.759 5.693)"/><path class="a" d="M92.36,38.529a1.256,1.256,0,0,0,.285,1.077,1.312,1.312,0,0,0,1,.408c.041,0,.081,0,.123,0a1.88,1.88,0,0,0,.994-.389c1.288-.965,4.854-5.191,5.1-6.681a1.247,1.247,0,0,0-1.393-1.526,2.039,2.039,0,0,0-1.6,1.11,17.378,17.378,0,0,1-3.788,4.842,1.986,1.986,0,0,0-.722,1.163" transform="translate(10.507 3.574)"/><path class="a" d="M122.125,63.392c.4,0,.766-.016,1.087-.037a16.717,16.717,0,0,0,8.025-3.456,1.976,1.976,0,0,0,.711-1.224,1.469,1.469,0,0,0-.348-1.24,1.492,1.492,0,0,0-1.211-.471,2.005,2.005,0,0,0-1.119.464c-1.216.894-3.581,2.417-5.757,2.567-2.034.143-3.475-.137-4.056-.78a1.4,1.4,0,0,1-.277-1.246c.577-3.436,6.118-7.178,9.9-8.561a11.133,11.133,0,0,1,1.4-.4l.345-.084a2.1,2.1,0,0,0,1.706-1.706,1.388,1.388,0,0,0-.327-1.19,1.594,1.594,0,0,0-1.279-.48,17.527,17.527,0,0,0-5.5,2.013,21.009,21.009,0,0,1,.125-6.941,22.457,22.457,0,0,1,1.378-4.916A1.645,1.645,0,0,0,126.729,34a1.519,1.519,0,0,0-1.231-.458,2.166,2.166,0,0,0-1.723,1.218,22.527,22.527,0,0,0-1.646,5.768c-.219,1.309-.839,5.7.089,9-2.283,1.588-5.826,4.609-6.467,8.42a4.165,4.165,0,0,0,.888,3.662c1.334,1.472,3.706,1.785,5.485,1.785" transform="translate(13.162 3.816)"/><path class="a" d="M178.9,34.956a2.449,2.449,0,0,0-2.2,1.988,38.933,38.933,0,0,1-1.756,6.086l-.126.363c-1.171,3.406-2.49,6.99-4.036,10.956-.3.762-.531,1.425-.848,2.32-.159.451-.341.963-.561,1.577-2.672,7.433-8.675,24.824-6.706,25.76a1.712,1.712,0,0,0,.686.141,1.6,1.6,0,0,0,.4-.051,2.019,2.019,0,0,0,1.149-.973c.623-1.04,2.916-8.039,5.344-15.448,1.7-5.176,3.3-10.065,4.251-12.67,2.3-6.284,3.6-9.815,3.893-10.624l.187-.525a44.423,44.423,0,0,0,2.036-7.022,1.583,1.583,0,0,0-1.713-1.877" transform="translate(18.466 3.977)"/><path class="a" d="M198.791,25.708c-.84-.913-2.8-.752-4.088-.643l-.411.032c-2.69.185-5.423.541-7.834.855-4.689.595-9.869,1.369-16.3,2.436l-5.982,1.048a21.24,21.24,0,0,0-2.5.433,2.433,2.433,0,0,0-1.917,1.911,1.688,1.688,0,0,0,.381,1.467,1.469,1.469,0,0,0,1.279.412l.233-.017c3.73-.454,7.539-1.122,11.225-1.766,3.152-.551,6.411-1.123,9.619-1.56l1.408-.194c3.338-.463,6.791-.941,10.11-1.124l.349-.023c-2.066,3.407-6.736,8.737-9.983,10.807a2.484,2.484,0,0,0-1.251,1.719,1.622,1.622,0,0,0,.371,1.374,1.587,1.587,0,0,0,1.2.506c.046,0,.091,0,.138-.006a2.32,2.32,0,0,0,.861-.244c3.848-1.965,12.8-12.184,13.446-16.006a1.6,1.6,0,0,0-.352-1.418" transform="translate(18.175 2.843)"/><path class="a" d="M237.179,22.589a2.31,2.31,0,0,0-1.629.88c-1.431,1.568-3.016,3.1-4.55,4.584l-.809.782c-1.926,1.849-3.87,3.674-5.805,5.494q-1.42,1.335-2.831,2.665c-2.136,2.01-4.207,3.918-6.327,5.832l-.784.712A45.212,45.212,0,0,1,210.325,47a2.387,2.387,0,0,0-1.088,1.533,1.5,1.5,0,0,0,.353,1.271,1.485,1.485,0,0,0,1.243.479,2,2,0,0,0,.916-.286c1.686-.926,9.424-8.131,15.977-14.306l.373-.351q-.485,1.859-.988,3.739c-1.353,5.09-2.753,10.354-3.6,15.369l-.084.478a12.407,12.407,0,0,0-.278,2.6,1.553,1.553,0,0,0,.482,1.132,1.477,1.477,0,0,0,1.012.36c.045,0,.091,0,.138,0a2.333,2.333,0,0,0,2.044-1.842c.082-.5.128-.99.174-1.482s.087-.956.168-1.433c.791-4.708,2.063-9.515,3.294-14.163l.316-1.194c.131-.5.268-.994.407-1.492a46.889,46.889,0,0,0,1.113-4.622A1.434,1.434,0,0,0,232,31.6c.229-.222.536-.513.889-.852,1.841-1.76,4.921-4.7,5.505-5.528a1.874,1.874,0,0,0,.381-.885,1.494,1.494,0,0,0-.341-1.279,1.517,1.517,0,0,0-1.256-.472" transform="translate(23.807 2.57)"/><path class="a" d="M294.706,28.652c-2.279-.687-16.281.254-16.422.263-10.261.7-22.99,2.093-25.364,4.738a2.511,2.511,0,0,0-.7,1.31,1.539,1.539,0,0,0,1.714,1.875,2.2,2.2,0,0,0,1.4-.621c2.051-1.52,15.839-2.93,19.359-3.173l.089,0c-1.874,4.036-4.081,8.059-6.016,11.534l-.435.787a70.673,70.673,0,0,1-5.667,9.128,2.332,2.332,0,0,0-.476,1.016,1.579,1.579,0,0,0,1.588,1.88c.041,0,.082,0,.125,0a2.428,2.428,0,0,0,1.638-.885c2.728-2.874,11.522-19.594,13.37-23.738,3.092-.208,13.007-.742,14.021-.372a1.7,1.7,0,0,0,.995.183,2.555,2.555,0,0,0,2.2-1.936,1.635,1.635,0,0,0-1.412-1.978" transform="translate(28.697 3.232)"/><path class="a" d="M289.693,20.658c.039,0,.078,0,.117,0a2.448,2.448,0,0,0,2.15-1.984,2.207,2.207,0,0,0-.388-1.5,2.551,2.551,0,0,1-.43-1.619,1.666,1.666,0,0,0-.422-1.361,1.548,1.548,0,0,0-1.249-.444,2.488,2.488,0,0,0-2.265,2.045A5.863,5.863,0,0,0,288.322,20a1.836,1.836,0,0,0,1.371.663" transform="translate(32.676 1.563)"/><path class="a" d="M268,23.7a1.863,1.863,0,0,0,.221-.014l.186-.013c2.015-.28,4.2-.5,6.689-.671,2.419-.164,9.682-.587,10.444-.411a1.509,1.509,0,0,1,.156.041,1.406,1.406,0,0,0,.554.078,2.515,2.515,0,0,0,2.2-1.988A1.837,1.837,0,0,0,288.2,19.5a1.543,1.543,0,0,0-.809-.571c-1.2-.378-4.961-.193-7.208-.081-.45.021-.832.04-1.119.05-.595.041-1.2.069-1.805.1s-1.223.058-1.821.1l-.787.052a45.4,45.4,0,0,0-6.211.7,2.531,2.531,0,0,0-1.928,1.965,1.655,1.655,0,0,0,.405,1.438A1.489,1.489,0,0,0,268,23.7" transform="translate(30.323 2.128)"/><path class="a" d="M298.062,11.951a1.622,1.622,0,0,0-.4-1.328,1.657,1.657,0,0,0-1.373-.47,2.467,2.467,0,0,0-2.167,2.091c-.2,1.214-.243,4.142.939,5.448a1.854,1.854,0,0,0,1.419.644c.049,0,.1,0,.15,0a2.518,2.518,0,0,0,2.2-1.989,1.624,1.624,0,0,0-.543-1.538c-.474-.42-.292-2.174-.222-2.852" transform="translate(33.455 1.154)"/><path class="a" d="M334.989,21.425a1.69,1.69,0,0,0-.372-1.432,1.588,1.588,0,0,0-1.331-.495,2.562,2.562,0,0,0-1.714,1c-1.47,1.592-3.091,3.143-4.658,4.646l-.1.094c-2.482,2.42-5.129,4.9-7.462,7.088l-6.206,5.687c-.281.243-.564.492-.848.743a34.033,34.033,0,0,1-2.627,2.169,2.564,2.564,0,0,0-1.177,1.654,1.593,1.593,0,0,0,.364,1.369,1.671,1.671,0,0,0,1.347.507,2.038,2.038,0,0,0,.989-.309c1.552-.85,10.647-9.386,13.506-12.085l-1.066,4.082c-1.009,3.8-2.053,7.725-2.7,11.586l-.076.418c-.212,1.138-.5,2.7.207,3.492a1.47,1.47,0,0,0,1.153.464c.055,0,.113,0,.169-.007a2.408,2.408,0,0,0,2.14-1.929c.075-.443.118-.87.16-1.288.04-.39.079-.772.144-1.157.688-4.1,1.793-8.279,2.861-12.323l.329-1.245c.131-.512.273-1.025.414-1.537a38.44,38.44,0,0,0,.912-3.795,1.711,1.711,0,0,0-.156-1.05c.265-.261.665-.647,1.129-1.1,2.019-1.952,3.863-3.749,4.256-4.291a2.037,2.037,0,0,0,.41-.956" transform="translate(35.101 2.218)"/><path class="a" d="M389.607,11.687l-.411.032c-2.675.183-5.415.54-7.833.855-4.691.595-9.871,1.369-16.3,2.436l-5.938,1.041a21.858,21.858,0,0,0-2.545.44,2.43,2.43,0,0,0-1.916,1.91,1.689,1.689,0,0,0,.382,1.469,1.475,1.475,0,0,0,1.274.411l.236-.017c3.728-.454,7.537-1.122,11.22-1.766,3.153-.552,6.413-1.124,9.622-1.562l1.379-.19c3.349-.463,6.812-.943,10.14-1.126l.346-.023c-2.066,3.407-6.735,8.735-9.98,10.806a2.477,2.477,0,0,0-1.252,1.719A1.621,1.621,0,0,0,378.4,29.5a1.583,1.583,0,0,0,1.2.5c.046,0,.091,0,.138,0a2.318,2.318,0,0,0,.863-.244c3.848-1.966,12.8-12.185,13.446-16.005a1.6,1.6,0,0,0-.352-1.419c-.84-.913-2.8-.751-4.089-.643" transform="translate(40.354 1.32)"/><path class="a" d="M373.088,21.576a2.451,2.451,0,0,0-2.2,1.989,38.936,38.936,0,0,1-1.755,6.076l-.129.373c-1.163,3.387-2.483,6.971-4.039,10.962-.118.324-.276.707-.443,1.114a15.634,15.634,0,0,0-.977,2.836,1.73,1.73,0,0,0,.426,1.371,1.207,1.207,0,0,0,.9.421c.026,0,.052,0,.079,0a2.573,2.573,0,0,0,2.451-1.608c.381-.848.678-1.717.967-2.559.106-.31.212-.619.319-.918l.327-.871c1.221-3.251,2.484-6.614,3.634-9.942l.106-.3a44.433,44.433,0,0,0,2.049-7.06,1.584,1.584,0,0,0-1.713-1.877" transform="translate(41.366 2.454)"/><path class="a" d="M431.914,11.209a7.239,7.239,0,0,0-1.245.038,6.877,6.877,0,0,1-.918.053l-8.216.564c-2.4.165-4.675.322-6.99.534-.332.022-.675.038-1.022.053a18.365,18.365,0,0,0-2.768.262,2.5,2.5,0,0,0-2.122,2.033,1.5,1.5,0,0,0,.362,1.282,1.716,1.716,0,0,0,1.413.536c2.545-.175,5.123-.392,7.618-.6,2.169-.183,4.4-.37,6.62-.531-5.464,4.639-11.244,12.112-12.252,18.122-1.057,6.3.835,11.035,5.074,12.678a2.134,2.134,0,0,0,.713.13c.05,0,.1,0,.153-.006a2.481,2.481,0,0,0,2.194-1.935,1.526,1.526,0,0,0-.835-1.658c-.193-.126-.382-.236-.567-.344a4.949,4.949,0,0,1-1.03-.72c-2.27-2.089-2.225-5.645-1.787-8.26.89-5.3,7.482-13.343,12.779-16.992a20.8,20.8,0,0,1,2.849-1.544l0,0a2.52,2.52,0,0,0,1.584-1.866,1.5,1.5,0,0,0-.272-1.22,1.8,1.8,0,0,0-1.339-.607" transform="translate(46.496 1.274)"/><path class="a" d="M445.042,3.542A15.418,15.418,0,0,1,443.833,1.3l-.2-.418A1.625,1.625,0,0,0,442.042,0a2.512,2.512,0,0,0-2.2,1.987c-.166.985,1.44,3.721,1.881,4.266a1.8,1.8,0,0,0,1.31.558c.039,0,.079,0,.119,0a2.447,2.447,0,0,0,2.194-1.936,1.722,1.722,0,0,0-.3-1.334" transform="translate(50.048 0)"/><path class="a" d="M438.322,4.759a1.612,1.612,0,0,0-.355-1.382,1.609,1.609,0,0,0-1.358-.493,2.552,2.552,0,0,0-2.2,1.989c-.38,2.267.1,3.841,1.558,5.107a1.654,1.654,0,0,0,1.108.383c.051,0,.1,0,.156-.006a2.448,2.448,0,0,0,2.2-1.987,1.686,1.686,0,0,0-.573-1.614,1.918,1.918,0,0,1-.537-2" transform="translate(49.417 0.327)"/><path class="a" d="M34.586,112.725c-2.4.163-6.392,2.044-8.637,3.271-1.018-3.9-.325-9.134.03-11.256a34.269,34.269,0,0,1,2.111-7.517,1.681,1.681,0,0,0-1.646-2.538,2.748,2.748,0,0,0-2.175,1.554,33.4,33.4,0,0,0-2.424,8.517c-.882,5.254-.8,10.32.223,13.635-3.342,2.274-8.839,6.806-9.8,12.517a5.774,5.774,0,0,0,1.211,5.079c1.878,2.071,5.274,2.516,7.843,2.516.591,0,1.139-.023,1.615-.057a24.416,24.416,0,0,0,11.747-5.061,2.443,2.443,0,0,0,.909-1.547,1.671,1.671,0,0,0-1.81-1.984,2.505,2.505,0,0,0-1.418.6c-1.871,1.376-5.518,3.719-8.908,3.952-2.272.154-5.243.049-6.5-1.333a2.579,2.579,0,0,1-.539-2.293c.939-5.59,9.614-11.2,15.185-13.239a17.11,17.11,0,0,1,2.13-.607l.545-.131a2.635,2.635,0,0,0,2.182-2.155,1.6,1.6,0,0,0-.369-1.369,1.816,1.816,0,0,0-1.51-.554" transform="translate(1.382 10.773)"/><path class="a" d="M78.383,98.753A47.428,47.428,0,0,0,72,98.486c-.045-.421-.065-.86-.085-1.286-.014-.3-.028-.591-.05-.9a1.461,1.461,0,0,0-1.638-1.352,2.352,2.352,0,0,0-2.039,1.881,5.8,5.8,0,0,0,.056,1.57l.013.115c-.868.028-1.746.087-2.6.146-.139.009-.3.017-.466.026-1.523.072-4.073.2-4.408,2.193a1.5,1.5,0,0,0,.332,1.282,1.539,1.539,0,0,0,1.256.458,1.035,1.035,0,0,0,.227-.049l.121-.027a24.071,24.071,0,0,1,3.144-.4c.921-.062,1.793-.085,2.708-.1.149,2.215.3,4.5.374,6.75a77.944,77.944,0,0,0-8.062.016,2.319,2.319,0,0,0-2.335,1.9,1.4,1.4,0,0,0,.325,1.2,1.607,1.607,0,0,0,1.32.486c1.975-.134,3.944-.09,5.849-.048.965.022,1.931.043,2.9.043h.024c-.024.32-.046.636-.067.95a24.421,24.421,0,0,1-.252,2.513c-.334,1.987-.8,2.786-1.131,3.1a2.034,2.034,0,0,0-.721,1.24,1.464,1.464,0,0,0,1.474,1.743c.039,0,.077,0,.116,0,2.847-.194,3.847-5.971,3.888-6.217a29.718,29.718,0,0,0,.35-3.331c1.015.007,2.055-.023,3.085-.094a2.35,2.35,0,0,0,2.028-1.832,1.466,1.466,0,0,0-1.587-1.739c-1.178.08-2.406.089-3.524.121-.077-2.554-.195-4.724-.369-6.771a34.208,34.208,0,0,1,5.044.243l.05.01.038,0a.848.848,0,0,0,.231.029h0a2.353,2.353,0,0,0,2.03-1.831,1.467,1.467,0,0,0-1.275-1.755" transform="translate(6.66 10.804)"/><path class="a" d="M59.667,118.513a1.422,1.422,0,0,0-1.589-1.354A2.317,2.317,0,0,0,56,118.992a.806.806,0,0,0,0,.229v.127a21.92,21.92,0,0,0,4.465,11.016,1.6,1.6,0,0,0,1.2.516c.04,0,.081,0,.123,0h0a2.35,2.35,0,0,0,2.022-1.783,1.469,1.469,0,0,0-.284-1.183,21.791,21.791,0,0,1-3.852-9.4" transform="translate(6.371 13.331)"/><path class="a" d="M133.1,97.748a23.457,23.457,0,0,0,1.587-4.991,2.7,2.7,0,0,0-.314-2.2,1.475,1.475,0,0,0-1.273-.424,2.512,2.512,0,0,0-2.2,1.987,19.025,19.025,0,0,1-1.085,4.045,15.847,15.847,0,0,0-5.732-.568,28.013,28.013,0,0,0-4.2.628c.311-1.161.7-2.345,1.083-3.53l.045-.267a1.64,1.64,0,0,0-.374-1.388,1.529,1.529,0,0,0-1.285-.491,2.516,2.516,0,0,0-2.128,1.595,28.862,28.862,0,0,0-1.257,4.216c-.088.364-.176.726-.266,1.083-8.523,2.989-17.68,9.652-19.063,17.885-.453,2.708-.031,4.8,1.257,6.222,1.4,1.548,3.742,2.219,6.953,2,10.031-.688,20.608-11.783,26.314-21.938a10.228,10.228,0,0,1,2.776,8.838,22.219,22.219,0,0,1-3.723,8.966l-1.543,2.121a2.528,2.528,0,0,0-.473,1.051,1.541,1.541,0,0,0,.317,1.358,1.583,1.583,0,0,0,1.222.471c.059,0,.12,0,.182-.007a2.471,2.471,0,0,0,1.7-.9c.388-.448.756-.97,1.114-1.476.145-.2.287-.407.429-.6l0-.007a27.564,27.564,0,0,0,4.685-11.09c.852-5.078-1.009-9.986-4.751-12.594m-5.066,2.131a57.4,57.4,0,0,1-9.557,12.57l-.319.329c-.761-3.014.095-8.729.4-10.545.109-.647.222-1.314.371-1.971a22.686,22.686,0,0,1,4.67-.852,12.242,12.242,0,0,1,4.435.47m-13.257,15.787c-2.347,1.76-5.825,3.829-9.448,4.079-2.15.144-3.549-.172-4.276-.973-.654-.721-.836-1.882-.555-3.549,1.083-6.448,9.248-11.442,14.308-13.562-.83,4.784-1.437,10.825-.029,14" transform="translate(10.977 10.256)"/><path class="a" d="M173.614,88.284a2.09,2.09,0,0,0-1.333.6c-1.021.84-2.137,1.886-3.217,2.9-.595.558-1.177,1.1-1.726,1.6L155.782,103.76c-.137.125-.287.255-.44.389-.316.275-.649.566-.95.868a2.473,2.473,0,0,0-.731,1.347,1.561,1.561,0,0,0,.517,1.347,65.264,65.264,0,0,1,5.04,6.042l.845,1.138c1.306,1.756,2.659,3.574,3.863,5.417l1.291,2.306a1.464,1.464,0,0,0,1.308.816c.046,0,.092,0,.14-.006a2.416,2.416,0,0,0,2.087-1.882,1.592,1.592,0,0,0-.094-.977,31.608,31.608,0,0,0-3.121-4.972c-.26-.364-.51-.714-.742-1.046a93.678,93.678,0,0,0-6.591-8.507l14.634-13.154,1.667-1.547a2.079,2.079,0,0,0,.738-1.27,1.525,1.525,0,0,0-.347-1.3,1.547,1.547,0,0,0-1.282-.481" transform="translate(17.483 10.045)"/><path class="a" d="M219.3,86.864c-2.189.15-13.284.976-16.837,2.493a2.485,2.485,0,0,0-1.528,1.815,1.627,1.627,0,0,0,.369,1.376,1.651,1.651,0,0,0,1.342.5,2.337,2.337,0,0,0,.636-.109,42.934,42.934,0,0,1,9.507-1.674l.2-.019c-.148.743-.355,1.514-.556,2.264-.078.29-.155.578-.228.86-.5,1.876-1.131,4.21-1.674,6.442l-.283,1.158-.032,0c-3.85.317-7.487.616-11.248.875l-1.735.118a2.506,2.506,0,0,0-2.294,1.889,1.679,1.679,0,0,0,.319,1.469,1.928,1.928,0,0,0,1.647.495c4.132-.284,8.134-.606,12.361-.949-.145.552-.3,1.108-.451,1.667-.479,1.743-.973,3.545-1.269,5.3-.421,2.512-.043,4.438,1.123,5.724s3.087,1.919,5.753,1.919q.615,0,1.282-.047a50.014,50.014,0,0,0,10.3-2.088,2.486,2.486,0,0,0,1.73-1.891,1.639,1.639,0,0,0-.379-1.409,1.663,1.663,0,0,0-1.378-.516.99.99,0,0,0-.242.051,1.012,1.012,0,0,1-.157.035,51.617,51.617,0,0,1-9.486,1.909c-2.282.156-3.535-.084-4.188-.8-.537-.593-.682-1.573-.443-3,.286-1.705.771-3.479,1.241-5.2.183-.667.364-1.333.536-1.994q2-.189,4.014-.365c2.7-.243,5.5-.495,8.24-.787.3-.032.686-.068,1.128-.109a32.586,32.586,0,0,0,4.4-.593,2.435,2.435,0,0,0,1.805-1.9A1.56,1.56,0,0,0,231.11,99.9l-.312.025a42.076,42.076,0,0,1-4.638.552c-.527.042-1.049.085-1.563.134l-10.374,1.014,1.96-7.472c.291-1.1.568-2.184.769-3.3l1.367-.095c2.78-.189,5.465-.322,8.2-.4.372,0,.761,0,1.153-.011a19.876,19.876,0,0,1,3.125.107,1.594,1.594,0,0,0,1.2.319,2.481,2.481,0,0,0,2.15-1.984,1.591,1.591,0,0,0-.53-1.588c-1.147-1.065-9.463-.667-14.318-.334" transform="translate(22.177 9.844)"/><path class="a" d="M268.52,86.169a2.349,2.349,0,0,0-2.108,1.88,26.361,26.361,0,0,1-2.251,3.868c-3.825,5.981-8.077,11.846-12.188,17.519L251,110.783a2.187,2.187,0,0,0-.413.98,1.647,1.647,0,0,0,1.664,1.971c.043,0,.087,0,.131,0a2.387,2.387,0,0,0,1.67-.891c.258-.3.486-.609.711-.916.126-.172.251-.343.4-.532l2.479-3.437c2.815-3.895,5.074-7.135,7.112-10.2l.472-.712c2.528-3.8,4.9-7.506,5.121-8.832a1.773,1.773,0,0,0-.388-1.521,1.736,1.736,0,0,0-1.433-.523" transform="translate(28.511 9.805)"/><path class="a" d="M327.737,75.387a1.806,1.806,0,0,0-1.947-2.135,2.791,2.791,0,0,0-2.408,2.174c-.4,2.373.089,3.962,1.632,5.313a1.874,1.874,0,0,0,1.254.439c.056,0,.114,0,.17-.006a2.644,2.644,0,0,0,2.4-2.121,1.9,1.9,0,0,0-.62-1.8,1.786,1.786,0,0,1-.481-1.868" transform="translate(36.783 8.335)"/><path class="a" d="M335.221,72.989l-.185-.391a1.848,1.848,0,0,0-1.805-.992,2.676,2.676,0,0,0-2.408,2.173c-.187,1.108,1.478,3.952,1.937,4.453a1.935,1.935,0,0,0,1.456.632c.051,0,.1,0,.154,0a2.788,2.788,0,0,0,2.407-2.173,1.927,1.927,0,0,0-.347-1.448,15.436,15.436,0,0,1-1.207-2.249" transform="translate(37.643 8.148)"/><path class="a" d="M315.218,83.275c-2.815.193-14.055,2.055-16.347,5.488a2.176,2.176,0,0,0-.32.834,1.523,1.523,0,0,0,1.663,1.824,2.241,2.241,0,0,0,1.68-.947c.946-.966,6.408-2.415,8.98-2.94a32.4,32.4,0,0,1,3.981-.526c1.481-.1,5.993-.413,6.718,1.008a2.051,2.051,0,0,1,.077,1.246c-.6,3.554-8.278,9.742-11.7,12.027a19.551,19.551,0,0,1-2.239,1.37l-1.075.556a2.317,2.317,0,0,0-1.285,1.674,1.549,1.549,0,0,0,.349,1.331,1.6,1.6,0,0,0,1.212.5c.048,0,.1,0,.148-.006a1.846,1.846,0,0,0,.754-.178c5.462-2.515,16.642-11.527,17.607-17.269a4.761,4.761,0,0,0-.946-4.178c-1.838-2.026-5.536-2.067-9.256-1.811" transform="translate(33.97 9.463)"/><path class="a" d="M369.673,72.637a2.2,2.2,0,0,0-1.394.618c-.967.8-2.018,1.781-3.035,2.737-.56.525-1.11,1.041-1.626,1.507l-10.885,9.776-.4.348c-.306.266-.63.55-.932.854a2.552,2.552,0,0,0-.746,1.39,1.741,1.741,0,0,0,.55,1.477,61.231,61.231,0,0,1,4.728,5.663l.8,1.075c1.229,1.652,2.5,3.36,3.619,5.076l1.225,2.187a1.612,1.612,0,0,0,1.435.877c.048,0,.1,0,.148-.006a2.534,2.534,0,0,0,2.187-1.976,1.787,1.787,0,0,0-.106-1.058,30.038,30.038,0,0,0-2.963-4.724c-.244-.342-.479-.67-.7-.982a89.2,89.2,0,0,0-6.066-7.853l13.606-12.231,1.569-1.455a2.219,2.219,0,0,0,.77-1.337,1.669,1.669,0,0,0-.387-1.43,1.707,1.707,0,0,0-1.4-.532" transform="translate(39.899 8.265)"/><path class="a" d="M401.125,95.465c.048,0,.1,0,.146,0,1.185-.08,2.879-1.351,4.513-2.645l.4-.315a2.651,2.651,0,0,0,.947-1.557,1.8,1.8,0,0,0-.415-1.544,1.961,1.961,0,0,0-1.586-.588,3.319,3.319,0,0,0-1.687.783c.016-.1.031-.195.049-.3a36.593,36.593,0,0,1,5.948-13.759l0,0a2.5,2.5,0,0,0,.518-1.113,1.812,1.812,0,0,0-.42-1.556,1.868,1.868,0,0,0-1.526-.579,2.8,2.8,0,0,0-1.863.985c-3.052,3.648-6.183,11.431-6.941,15.953-.214,1.271-.585,4.365.586,5.658a1.745,1.745,0,0,0,1.331.583" transform="translate(45.4 8.225)"/><path class="a" d="M423.98,76.807c-.185-.525-.676-1.92-1.775-2.065-1.312-.16-2.35,1.586-2.452,1.843-.2.516-.349,1.009-.5,1.533-.064.216-.127.437-.2.66-.384,1.22-.8,2.4-1.229,3.616l-.241.681c-3.005,8.557-10.12,21.713-10.192,21.847-1.648,3.067-2.987,5.5-4.236,7.763-2.326,4.219-4.333,7.862-7.448,14.01-5.8,11.5-4.877,12.02-4.382,12.3a.708.708,0,0,0,.356.091,2.767,2.767,0,0,0,1.181-.45,4.808,4.808,0,0,0,1.3-1.047,25.751,25.751,0,0,0,2.937-3.82c1.681-3.018,2.953-5.762,3.19-6.281.2-.444.335-.723.461-.976.373-.75.671-1.292.742-1.422.332-.6,1.083-2.035,2.105-3.986,2.241-4.274,5.992-11.429,9.385-17.543l.321-.576c5.67-10.2,12.009-22.4,10.678-26.176Z" transform="translate(44.487 8.504)"/></g></g></svg>