<svg xmlns="http://www.w3.org/2000/svg" width="17.519" height="17.519" viewBox="0 0 17.519 17.519"><defs><style>.a{fill:#5a9395;}</style></defs><g transform="translate(-3.5 -3.5)"><path class="a" d="M15.708,22.933H6.224A2.727,2.727,0,0,1,3.5,20.208V10.724A2.727,2.727,0,0,1,6.224,8H11.4a1,1,0,1,1,0,2H6.224a.725.725,0,0,0-.724.724v9.484a.725.725,0,0,0,.724.724h9.484a.725.725,0,0,0,.724-.724V15.035a1,1,0,0,1,2,0v5.173A2.727,2.727,0,0,1,15.708,22.933Z" transform="translate(0 -1.913)"/><path class="a" d="M27.673,10.673a1,1,0,0,1-1-1V5.5H22.5a1,1,0,1,1,0-2h5.173a1,1,0,0,1,1,1V9.673A1,1,0,0,1,27.673,10.673Z" transform="translate(-7.654)"/><path class="a" d="M15,14.984a1,1,0,0,1-.707-1.707l9.484-9.484a1,1,0,1,1,1.414,1.414l-9.484,9.484A1,1,0,0,1,15,14.984Z" transform="translate(-4.465)"/></g></svg>