<svg xmlns="http://www.w3.org/2000/svg" width="182.366" height="40.81" viewBox="0 0 182.366 40.81"><defs><style>.a{fill:#333;}</style></defs><g transform="translate(-6531.3 156.612)"><path class="a" d="M11.66-4.18c0-5.676-8.272-3.212-8.272-7.172,0-1.65,1.3-2.508,2.948-2.464a2.777,2.777,0,0,1,2.97,2.222h2.2c-.242-2.332-2.156-3.938-5.082-3.938-3.036,0-5.082,1.716-5.082,4.246,0,5.7,8.294,3.058,8.294,7.194,0,1.452-1.144,2.552-3.08,2.552A2.84,2.84,0,0,1,3.388-4.092H1.254C1.3-1.562,3.476.154,6.556.154,9.878.154,11.66-2,11.66-4.18Zm4.62-1.892c0,3.74,2.486,6.27,5.7,6.27a5.035,5.035,0,0,0,4.51-2.442V0h2.024V-12.056H26.488v2.2A5,5,0,0,0,22-12.254C18.766-12.254,16.28-9.834,16.28-6.072Zm10.208.022c0,2.838-1.892,4.488-4.092,4.488s-4.07-1.672-4.07-4.51,1.87-4.444,4.07-4.444A4.131,4.131,0,0,1,26.488-6.05Zm16.5,2.772C42.9-7.59,35.9-6.028,35.9-8.888c0-.968.88-1.672,2.354-1.672a2.318,2.318,0,0,1,2.618,2.09h2c-.132-2.354-1.892-3.784-4.554-3.784-2.684,0-4.422,1.518-4.422,3.366,0,4.488,7.128,2.926,7.128,5.61,0,.99-.88,1.782-2.464,1.782-1.694,0-2.728-.88-2.838-2.046H33.66C33.792-1.342,35.772.2,38.588.2,41.25.2,42.988-1.3,42.988-3.278Zm4.488-2.794c0,3.74,2.486,6.27,5.7,6.27a5.035,5.035,0,0,0,4.51-2.442V0h2.024V-12.056H57.684v2.2a5,5,0,0,0-4.488-2.4C49.962-12.254,47.476-9.834,47.476-6.072Zm10.208.022c0,2.838-1.892,4.488-4.092,4.488s-4.07-1.672-4.07-4.51,1.87-4.444,4.07-4.444A4.131,4.131,0,0,1,57.684-6.05ZM65.516,0h2V-5.324L72.248,0h2.728l-5.7-6.05,5.676-6.006H72.16L67.518-6.71v-9.57h-2Zm13.75,0h2V-12.056h-2ZM80.3-14.014a1.334,1.334,0,0,0,1.32-1.364,1.334,1.334,0,0,0-1.32-1.364,1.343,1.343,0,0,0-1.364,1.364A1.343,1.343,0,0,0,80.3-14.014ZM105.2,0h2V-15.334h-2V-8.6h-7.81v-6.732h-2V0h2V-6.952h7.81Zm7.062-6.072c0,3.74,2.486,6.27,5.7,6.27a5.035,5.035,0,0,0,4.51-2.442V0H124.5V-12.056h-2.024v2.2a5,5,0,0,0-4.488-2.4C114.752-12.254,112.266-9.834,112.266-6.072Zm10.208.022c0,2.838-1.892,4.488-4.092,4.488s-4.07-1.672-4.07-4.51,1.87-4.444,4.07-4.444A4.131,4.131,0,0,1,122.474-6.05Zm9.834-.506c0-2.794,1.452-3.652,3.366-3.652h.528v-2.068a4.06,4.06,0,0,0-3.894,2.178v-1.958h-2V0h2Zm19.316-5.5h-2v6.622c0,2.6-1.386,3.872-3.454,3.872-2.024,0-3.366-1.254-3.366-3.7v-6.8h-1.98v7.062c0,3.454,2.178,5.17,4.95,5.17a4.432,4.432,0,0,0,3.85-1.958V0h2ZM157.432,0h2V-5.324L164.164,0h2.728l-5.7-6.05,5.676-6.006h-2.794L159.434-6.71v-9.57h-2Zm13-6.072c0,3.74,2.486,6.27,5.7,6.27a5.035,5.035,0,0,0,4.51-2.442V0h2.024V-12.056h-2.024v2.2a5,5,0,0,0-4.488-2.4C172.92-12.254,170.434-9.834,170.434-6.072Zm10.208.022c0,2.838-1.892,4.488-4.092,4.488s-4.07-1.672-4.07-4.51,1.87-4.444,4.07-4.444A4.131,4.131,0,0,1,180.642-6.05Z" transform="translate(6531 -116)"/><path class="a" d="M2.436,0H4.92L6.312-5.544,7.656,0H10.14l2.2-8.424H10.128L8.9-2.292,7.464-8.424H5.208l-1.5,6.132L2.5-8.424H.3Zm15.2-5.148A1.158,1.158,0,0,1,18.9-4H16.332A1.269,1.269,0,0,1,17.64-5.148Zm3.2,2.928H18.66a1.091,1.091,0,0,1-1.068.648A1.241,1.241,0,0,1,16.32-2.856h4.644a5.185,5.185,0,0,0,.036-.6,3.155,3.155,0,0,0-3.336-3.336A3.216,3.216,0,0,0,14.28-3.348,3.228,3.228,0,0,0,17.664.1,3.129,3.129,0,0,0,20.844-2.22Zm4.608-3.528V-8.88H23.4V0h2.052V-.936A2.353,2.353,0,0,0,27.516.1c1.644,0,2.952-1.344,2.952-3.456s-1.3-3.432-2.952-3.432A2.364,2.364,0,0,0,25.452-5.748ZM28.38-3.36A1.514,1.514,0,0,1,26.9-1.692,1.5,1.5,0,0,1,25.44-3.348,1.5,1.5,0,0,1,26.9-5,1.493,1.493,0,0,1,28.38-3.36Zm7.944,0C36.324-1.248,37.632.1,39.276.1A2.316,2.316,0,0,0,41.34-.96V0h2.052V-8.88H41.34v3.108a2.458,2.458,0,0,0-2.064-1.02C37.632-6.792,36.324-5.472,36.324-3.36Zm5.016.012a1.5,1.5,0,0,1-1.464,1.656A1.513,1.513,0,0,1,38.412-3.36,1.491,1.491,0,0,1,39.876-5,1.5,1.5,0,0,1,41.34-3.348ZM46.2,0h2.052V-6.7H46.2Zm1.032-7.392a1.13,1.13,0,0,0,1.212-1.1,1.132,1.132,0,0,0-1.212-1.116A1.135,1.135,0,0,0,46.008-8.5,1.133,1.133,0,0,0,47.232-7.392Zm5.88,4.284c0-1.152.564-1.488,1.536-1.488h.564V-6.768a2.5,2.5,0,0,0-2.1,1.188V-6.7H51.06V0h2.052Zm7.356-2.04A1.158,1.158,0,0,1,61.728-4H59.16A1.269,1.269,0,0,1,60.468-5.148Zm3.2,2.928H61.488a1.091,1.091,0,0,1-1.068.648,1.241,1.241,0,0,1-1.272-1.284h4.644a5.186,5.186,0,0,0,.036-.6,3.155,3.155,0,0,0-3.336-3.336,3.216,3.216,0,0,0-3.384,3.444A3.228,3.228,0,0,0,60.492.1,3.129,3.129,0,0,0,63.672-2.22ZM65.82-3.348A3.21,3.21,0,0,0,69.18.1,3.109,3.109,0,0,0,72.4-2.424H70.212a1.042,1.042,0,0,1-1.068.768c-.732,0-1.236-.576-1.236-1.692s.5-1.692,1.236-1.692a1.058,1.058,0,0,1,1.068.768H72.4a3.067,3.067,0,0,0-3.216-2.52A3.216,3.216,0,0,0,65.82-3.348Zm9.312,1.02A2.068,2.068,0,0,0,77.5,0H78.54V-1.74h-.732c-.456,0-.624-.168-.624-.564V-4.992h1.344V-6.7H77.184V-8.328H75.132V-6.7h-.816v1.7h.816Zm12.42-1.02a3.3,3.3,0,0,0-3.48-3.444,3.31,3.31,0,0,0-3.48,3.444A3.284,3.284,0,0,0,84.048.1,3.322,3.322,0,0,0,87.552-3.348Zm-4.872,0c0-1.14.648-1.668,1.392-1.668.72,0,1.392.528,1.392,1.668A1.466,1.466,0,0,1,84.048-1.68C83.3-1.68,82.68-2.22,82.68-3.348Zm9.336.24c0-1.152.564-1.488,1.536-1.488h.564V-6.768a2.5,2.5,0,0,0-2.1,1.188V-6.7H89.964V0h2.052Z" transform="translate(6531 -147)"/></g></svg>